# File created by Blade
# Date/Time:  Wed Jan 21 16:02:01 2015
# Frame Rate: 120.000 fps
#------------------------------------------------------
:FULLY-SPECIFIED
:DEGREES
1220
root 17.593017 32.699805 -16.694056 -171.738908 4.888492 -175.648435
Spine -14.703201 6.552350 17.535655
Head 8.725673 -1.044748 -11.975521
LeftShoulder -10.603376 -28.220279 -5.493133
LeftArm -38.841569 -10.946499 -56.874114
LeftForeArm 3.348534 -0.000000 7.520246
LeftHand -1.812388 -0.000000 2.756085
LeftHandThumb1 -26.253704 0.000000 33.147579
RightShoulder -10.703964 17.969059 -42.209643
RightArm 43.210388 50.215215 -8.383733
RightForeArm -42.218268 -0.000000 15.118721
RightHand -2.330145 0.000000 -23.310046
RightHandThumb1 -24.326973 -0.000000 -32.862282
LeftUpLeg 9.837537 3.158194 -18.184120
LeftLeg -0.116940 -0.000000 0.000000
LeftFoot -36.933524 16.227526 -18.550604
LeftToeBase 27.403839 -0.000000 -0.000000
RightUpLeg -21.681934 13.657333 20.737720
RightLeg -0.703794 -0.000000 0.000000
RightFoot -4.634526 -36.622662 1.002186
RightToeBase 11.189094 -0.000000 -0.000000
1221
root 17.592932 32.699556 -16.675318 -171.727017 4.921995 -175.698014
Spine -14.674647 6.597274 17.589608
Head 8.647637 -0.893389 -12.157661
LeftShoulder -10.609877 -28.232448 -5.498266
LeftArm -38.839763 -10.940330 -56.902807
LeftForeArm 3.341721 -0.000000 7.503309
LeftHand -1.746950 -0.000000 2.707560
LeftHandThumb1 -26.253704 0.000000 33.147579
RightShoulder -10.755087 18.166920 -42.248843
RightArm 43.276566 50.081214 -8.301538
RightForeArm -42.280165 -0.000000 15.243643
RightHand -2.317779 -0.000000 -23.422252
RightHandThumb1 -24.326973 -0.000000 -32.862282
LeftUpLeg 9.784917 3.173038 -18.236128
LeftLeg -0.111340 -0.000000 0.000000
LeftFoot -36.920172 16.246485 -18.507028
LeftToeBase 27.361139 -0.000000 -0.000000
RightUpLeg -21.741332 13.696020 20.678346
RightLeg -0.654801 -0.000000 0.000000
RightFoot -4.682417 -36.590229 1.062568
RightToeBase 11.055628 -0.000000 -0.000000
1222
root 17.591215 32.700080 -16.658826 -171.730607 4.933037 -175.741552
Spine -14.638411 6.621491 17.671445
Head 8.570278 -0.842567 -12.369829
LeftShoulder -10.607486 -28.273605 -5.527574
LeftArm -38.896417 -10.994608 -56.869082
LeftForeArm 3.450831 -0.000000 7.543026
LeftHand -1.759906 0.000000 2.647670
LeftHandThumb1 -26.253704 0.000000 33.147579
RightShoulder -10.681044 18.056510 -42.187817
RightArm 43.061915 50.272759 -8.472686
RightForeArm -42.342995 -0.000000 15.441058
RightHand -2.363743 -0.000000 -23.468039
RightHandThumb1 -24.326973 -0.000000 -32.862282
LeftUpLeg 9.763885 3.171817 -18.284115
LeftLeg -0.121435 -0.000000 0.000000
LeftFoot -36.867695 16.276920 -18.485508
LeftToeBase 26.916741 -0.000000 -0.000000
RightUpLeg -21.771910 13.710797 20.628333
RightLeg -0.642939 -0.000000 0.000000
RightFoot -4.632727 -36.621768 1.052336
RightToeBase 10.750093 -0.000000 -0.000000
1223
root 17.589497 32.700246 -16.644195 -171.741569 4.949668 -175.789851
Spine -14.605435 6.650108 17.748473
Head 8.533861 -0.718351 -12.608809
LeftShoulder -10.630979 -28.319743 -5.526827
LeftArm -38.909134 -10.926710 -56.944099
LeftForeArm 3.383985 0.000000 7.516050
LeftHand -1.757295 -0.000000 2.658835
LeftHandThumb1 -26.253704 0.000000 33.147579
RightShoulder -10.703986 18.170172 -42.229802
RightArm 43.125938 50.208360 -8.393664
RightForeArm -42.437486 -0.000000 15.542282
RightHand -2.475527 -0.000000 -23.703657
RightHandThumb1 -24.326973 -0.000000 -32.862282
LeftUpLeg 9.753159 3.163506 -18.337200
LeftLeg -0.137284 -0.000000 0.000000
LeftFoot -36.846195 16.290833 -18.499498
LeftToeBase 26.864334 -0.000000 -0.000000
RightUpLeg -21.792465 13.710484 20.581254
RightLeg -0.631319 -0.000000 0.000000
RightFoot -4.614388 -36.628151 1.028925
RightToeBase 10.649654 -0.000000 -0.000000
1224
root 17.587239 32.700599 -16.631087 -171.758613 4.963357 -175.836623
Spine -14.559602 6.665043 17.848065
Head 8.452752 -0.618918 -12.872304
LeftShoulder -10.689186 -28.342705 -5.533492
LeftArm -38.897998 -10.896316 -57.008009
LeftForeArm 3.381546 -0.000000 7.524950
LeftHand -1.790486 -0.000000 2.769613
LeftHandThumb1 -26.253704 0.000000 33.147579
RightShoulder -10.794456 18.426472 -42.332603
RightArm 43.331634 50.010319 -8.170529
RightForeArm -42.491059 -0.000000 15.661160
RightHand -2.482972 -0.000000 -23.910010
RightHandThumb1 -24.326973 -0.000000 -32.862282
LeftUpLeg 9.754563 3.159164 -18.386633
LeftLeg -0.158458 -0.000000 0.000000
LeftFoot -36.807122 16.285077 -18.497846
LeftToeBase 26.868274 -0.000000 -0.000000
RightUpLeg -21.797711 13.688338 20.542731
RightLeg -0.633058 -0.000000 0.000000
RightFoot -4.618012 -36.612994 1.065100
RightToeBase 10.569822 -0.000000 -0.000000
1225
root 17.584332 32.700254 -16.617910 -171.768333 4.973122 -175.885146
Spine -14.517932 6.682163 17.927732
Head 8.365691 -0.528104 -13.065064
LeftShoulder -10.728701 -28.348280 -5.528946
LeftArm -38.897193 -10.881089 -57.085114
LeftForeArm 3.344229 -0.000000 7.550495
LeftHand -1.773945 -0.000000 2.775784
LeftHandThumb1 -26.253704 0.000000 33.147579
RightShoulder -10.668774 18.010196 -42.186775
RightArm 42.927570 50.468527 -8.578700
RightForeArm -42.390653 0.000000 15.772401
RightHand -2.362130 -0.000000 -24.024031
RightHandThumb1 -24.326973 -0.000000 -32.862282
LeftUpLeg 9.750029 3.155399 -18.438911
LeftLeg -0.178947 -0.000000 0.000000
LeftFoot -36.762389 16.294934 -18.490535
LeftToeBase 26.796586 -0.000000 -0.000000
RightUpLeg -21.801370 13.624140 20.516529
RightLeg -0.647676 -0.000000 0.000000
RightFoot -4.584609 -36.539969 1.031323
RightToeBase 10.558470 -0.000000 -0.000000
1226
root 17.582157 32.699980 -16.604969 -171.773932 4.986085 -175.935186
Spine -14.504138 6.712258 18.011131
Head 8.329218 -0.378808 -13.283448
LeftShoulder -10.734390 -28.320160 -5.551095
LeftArm -38.888758 -10.921799 -57.122320
LeftForeArm 3.352283 -0.000000 7.549277
LeftHand -1.781615 -0.000000 2.715690
LeftHandThumb1 -26.253704 0.000000 33.147579
RightShoulder -10.617363 17.926737 -42.139982
RightArm 42.803320 50.536325 -8.798861
RightForeArm -42.339312 -0.000000 15.791104
RightHand -2.415439 -0.000000 -24.245419
RightHandThumb1 -24.326973 -0.000000 -32.862282
LeftUpLeg 9.737344 3.164068 -18.490358
LeftLeg -0.196868 -0.000000 0.000000
LeftFoot -36.696605 16.317084 -18.436563
LeftToeBase 26.691535 -0.000000 -0.000000
RightUpLeg -21.818796 13.627959 20.461123
RightLeg -0.658368 -0.000000 0.000000
RightFoot -4.509543 -36.562735 1.006126
RightToeBase 10.420799 -0.000000 -0.000000
1227
root 17.579876 32.699911 -16.592179 -171.771637 5.007506 -175.997717
Spine -14.501466 6.733176 18.079707
Head 8.306045 -0.268520 -13.485854
LeftShoulder -10.778353 -28.336320 -5.545457
LeftArm -38.906672 -10.957730 -57.130191
LeftForeArm 3.441750 -0.000000 7.524776
LeftHand -1.821035 -0.000000 2.609146
LeftHandThumb1 -26.253704 0.000000 33.147579
RightShoulder -10.615990 17.978857 -42.162620
RightArm 42.838807 50.536563 -8.726614
RightForeArm -42.378827 -0.000000 15.927965
RightHand -2.369910 -0.000000 -24.392667
RightHandThumb1 -24.326973 -0.000000 -32.862282
LeftUpLeg 9.722178 3.150751 -18.558715
LeftLeg -0.225662 -0.000000 0.000000
LeftFoot -36.616966 16.342514 -18.416732
LeftToeBase 26.666963 -0.000000 -0.000000
RightUpLeg -21.832767 13.617560 20.404529
RightLeg -0.681215 -0.000000 0.000000
RightFoot -4.399271 -36.526389 0.857962
RightToeBase 10.592353 -0.000000 -0.000000
1228
root 17.577411 32.699549 -16.578604 -171.761784 4.992711 -176.068625
Spine -14.517757 6.727368 18.140690
Head 8.285213 -0.130204 -13.719440
LeftShoulder -10.836472 -28.310262 -5.544268
LeftArm -38.866369 -10.975061 -57.182074
LeftForeArm 3.478819 -0.000000 7.500083
LeftHand -1.820432 -0.000000 2.585938
LeftHandThumb1 -26.253704 0.000000 33.147579
RightShoulder -10.606964 17.901295 -42.132614
RightArm 42.882671 50.648464 -8.752079
RightForeArm -42.431359 0.000000 15.932435
RightHand -2.400395 0.000000 -24.548883
RightHandThumb1 -24.326973 -0.000000 -32.862282
LeftUpLeg 9.699188 3.113976 -18.630636
LeftLeg -0.243181 -0.000000 0.000000
LeftFoot -36.489143 16.372715 -18.344071
LeftToeBase 26.543886 -0.000000 -0.000000
RightUpLeg -21.870538 13.554251 20.350525
RightLeg -0.690274 -0.000000 0.000000
RightFoot -4.296712 -36.461740 0.718129
RightToeBase 10.743955 -0.000000 -0.000000
1229
root 17.576279 32.698396 -16.563382 -171.763212 4.938558 -176.146081
Spine -14.536870 6.682422 18.182827
Head 8.287001 -0.020685 -13.885659
LeftShoulder -10.836022 -28.307219 -5.563354
LeftArm -38.872777 -11.027657 -57.183650
LeftForeArm 3.566482 -0.000000 7.475782
LeftHand -1.819765 0.000000 2.782668
LeftHandThumb1 -26.253704 0.000000 33.147579
RightShoulder -10.521130 17.891236 -42.056281
RightArm 42.750396 50.712957 -8.907161
RightForeArm -42.448969 -0.000000 16.055034
RightHand -2.340072 -0.000000 -24.628752
RightHandThumb1 -24.326973 -0.000000 -32.862282
LeftUpLeg 9.682223 3.069304 -18.694823
LeftLeg -0.249705 -0.000000 0.000000
LeftFoot -36.339048 16.414304 -18.205640
LeftToeBase 26.503474 -0.000000 -0.000000
RightUpLeg -21.898551 13.485854 20.279811
RightLeg -0.735677 -0.000000 0.000000
RightFoot -4.109753 -36.431361 0.509237
RightToeBase 10.819303 -0.000000 -0.000000
1230
root 17.574520 32.696909 -16.551108 -171.758863 4.910943 -176.213892
Spine -14.546053 6.677841 18.241879
Head 8.258347 0.075314 -14.040945
LeftShoulder -10.910799 -28.352091 -5.527194
LeftArm -38.881227 -11.009661 -57.242502
LeftForeArm 3.523198 -0.000000 7.467209
LeftHand -1.822108 -0.000000 2.583261
LeftHandThumb1 -26.253704 0.000000 33.147579
RightShoulder -10.475678 17.782925 -42.022467
RightArm 42.634461 50.886788 -8.974024
RightForeArm -42.495625 -0.000000 16.242951
RightHand -2.320277 -0.000000 -24.668863
RightHandThumb1 -24.326973 -0.000000 -32.862282
LeftUpLeg 9.667385 3.034416 -18.764206
LeftLeg -0.274830 -0.000000 0.000000
LeftFoot -36.213185 16.502053 -18.070476
LeftToeBase 26.519432 -0.000000 -0.000000
RightUpLeg -21.919208 13.442156 20.216060
RightLeg -0.778614 -0.000000 0.000000
RightFoot -3.901027 -36.393525 0.276025
RightToeBase 10.950350 -0.000000 -0.000000
1231
root 17.572565 32.694676 -16.539699 -171.753869 4.892214 -176.281982
Spine -14.577048 6.713834 18.290817
Head 8.286219 0.149991 -14.239037
LeftShoulder -10.919062 -28.306009 -5.532752
LeftArm -38.848776 -11.051740 -57.301567
LeftForeArm 3.497816 -0.000000 7.455245
LeftHand -1.821050 -0.000000 2.553636
LeftHandThumb1 -26.253704 0.000000 33.147579
RightShoulder -10.459835 17.760115 -42.006138
RightArm 42.617992 50.884093 -9.040670
RightForeArm -42.538786 -0.000000 16.306994
RightHand -2.456268 -0.000000 -24.726160
RightHandThumb1 -24.326973 -0.000000 -32.862282
LeftUpLeg 9.664411 2.984260 -18.839150
LeftLeg -0.328904 -0.000000 0.000000
LeftFoot -36.021950 16.616100 -17.914544
LeftToeBase 26.629457 -0.000000 -0.000000
RightUpLeg -21.936768 13.384476 20.157969
RightLeg -0.828231 -0.000000 0.000000
RightFoot -3.716974 -36.336853 0.072613
RightToeBase 11.066746 -0.000000 -0.000000
